<?xml version="1.0" encoding="UTF-8"?>
<!-- Evolith conceptual view (EN). Generated 2026-09-12 from product/suite/architecture/evolith-conceptual-view.md.
     Technologies, frameworks and protocols were read from the workspace package.json files,
     product/infra/docker-compose.fullstack.yml and product/products/ecosystem-and-communication.md. -->
<svg xmlns="http://www.w3.org/2000/svg" viewBox="0 0 1600 1414" width="1600" height="1414" font-family="Inter, 'Segoe UI', Roboto, 'Helvetica Neue', Arial, sans-serif" role="img" aria-labelledby="t d">
<title id="t">Evolith — conceptual view with technologies, frameworks and protocols per process</title>
<desc id="d">Chips = technologies and frameworks · monospace line = protocols and contracts · arrows = direction of consumption · source: product/suite/architecture/evolith-conceptual-view.md · 2026-09-12</desc>
<defs><marker id="arr" viewBox="0 0 10 10" refX="8" refY="5" markerWidth="8" markerHeight="8" orient="auto-start-reverse"><path d="M2 1L8 5L2 9" fill="none" stroke="#5F5E5A" stroke-width="1.5" stroke-linecap="round" stroke-linejoin="round"/></marker></defs>
<rect x="0" y="0" width="1600" height="1414" fill="#FCFCFA"/>
<text x="40" y="64" font-size="26" font-weight="600" fill="#2C2C2A">Evolith — conceptual view with technologies, frameworks and protocols per process</text>
<text x="40" y="92" font-size="13" fill="#5F5E5A">Chips = technologies and frameworks · monospace line = protocols and contracts · arrows = direction of consumption · source: product/suite/architecture/evolith-conceptual-view.md · 2026-09-12</text>
<rect x="40" y="120" width="1520" height="220" rx="14" fill="#FFFFFF" stroke="#888780" stroke-width="1" stroke-dasharray="6 4"/>
<text x="60" y="156" font-size="18" font-weight="600" fill="#2C2C2A">Actors and entry points</text>
<text x="322.4" y="156" font-size="13" fill="#5F5E5A">who asks for an evaluation and through which door</text>
<rect x="60" y="174" width="482" height="146" rx="10" fill="#F1EFE8" stroke="#888780" stroke-width="1"/>
<text x="72" y="202" font-size="16" font-weight="600" fill="#2C2C2A">Team and CI</text>
<text x="72" y="226" font-size="13" fill="#5F5E5A">develops and validates in the pipeline</text>
<rect x="72" y="232" width="113" height="22" rx="11" fill="#FFFFFF" stroke="#B4B2A9" stroke-width="1"/>
<text x="128.5" y="247" font-size="12" text-anchor="middle" fill="#2C2C2A">GitHub Actions</text>
<rect x="191" y="232" width="180" height="22" rx="11" fill="#FFFFFF" stroke="#B4B2A9" stroke-width="1"/>
<text x="281" y="247" font-size="12" text-anchor="middle" fill="#2C2C2A">action.yml (Marketplace)</text>
<rect x="377" y="232" width="39" height="22" rx="11" fill="#FFFFFF" stroke="#B4B2A9" stroke-width="1"/>
<text x="396.5" y="247" font-size="12" text-anchor="middle" fill="#2C2C2A">git</text>
<rect x="422" y="232" width="39" height="22" rx="11" fill="#FFFFFF" stroke="#B4B2A9" stroke-width="1"/>
<text x="441.5" y="247" font-size="12" text-anchor="middle" fill="#2C2C2A">npm</text>
<text x="72" y="276" font-size="12" font-family="'SF Mono', Menlo, Consolas, 'Liberation Mono', monospace" fill="#888780">terminal · HTTPS</text>
<rect x="558" y="174" width="482" height="146" rx="10" fill="#F1EFE8" stroke="#888780" stroke-width="1"/>
<text x="570" y="202" font-size="16" font-weight="600" fill="#2C2C2A">AI agent</text>
<text x="570" y="226" font-size="13" fill="#5F5E5A">proposes changes and queries the rules</text>
<rect x="570" y="232" width="59" height="22" rx="11" fill="#FFFFFF" stroke="#B4B2A9" stroke-width="1"/>
<text x="599.5" y="247" font-size="12" text-anchor="middle" fill="#2C2C2A">Cursor</text>
<rect x="635" y="232" width="113" height="22" rx="11" fill="#FFFFFF" stroke="#B4B2A9" stroke-width="1"/>
<text x="691.5" y="247" font-size="12" text-anchor="middle" fill="#2C2C2A">Claude Desktop</text>
<rect x="754" y="232" width="92" height="22" rx="11" fill="#FFFFFF" stroke="#B4B2A9" stroke-width="1"/>
<text x="800" y="247" font-size="12" text-anchor="middle" fill="#2C2C2A">Claude Code</text>
<text x="570" y="276" font-size="12" font-family="'SF Mono', Menlo, Consolas, 'Liberation Mono', monospace" fill="#888780">MCP JSON-RPC 2.0 over stdio · Streamable HTTP</text>
<rect x="1056" y="174" width="482" height="146" rx="10" fill="#F1EFE8" stroke="#888780" stroke-width="1"/>
<text x="1068" y="202" font-size="16" font-weight="600" fill="#2C2C2A">Tracker</text>
<text x="1068" y="226" font-size="13" fill="#5F5E5A">governs initiatives and evidence; external client of the Core</text>
<rect x="1068" y="232" width="133" height="22" rx="11" fill="#FFFFFF" stroke="#B4B2A9" stroke-width="1"/>
<text x="1134.5" y="247" font-size="12" text-anchor="middle" fill="#2C2C2A">.NET 10 + EF Core</text>
<rect x="1207" y="232" width="153" height="22" rx="11" fill="#FFFFFF" stroke="#B4B2A9" stroke-width="1"/>
<text x="1283.5" y="247" font-size="12" text-anchor="middle" fill="#2C2C2A">NestJS gateway (BFF)</text>
<rect x="1366" y="232" width="99" height="22" rx="11" fill="#FFFFFF" stroke="#B4B2A9" stroke-width="1"/>
<text x="1415.5" y="247" font-size="12" text-anchor="middle" fill="#2C2C2A">React + Vite</text>
<rect x="1471" y="232" width="52" height="22" rx="11" fill="#FFFFFF" stroke="#B4B2A9" stroke-width="1"/>
<text x="1497" y="247" font-size="12" text-anchor="middle" fill="#2C2C2A">nginx</text>
<rect x="1068" y="260" width="106" height="22" rx="11" fill="#FFFFFF" stroke="#B4B2A9" stroke-width="1"/>
<text x="1121" y="275" font-size="12" text-anchor="middle" fill="#2C2C2A">PostgreSQL 16</text>
<text x="1068" y="304" font-size="12" font-family="'SF Mono', Menlo, Consolas, 'Liberation Mono', monospace" fill="#888780">REST /api/v1 · MCP HTTP (as a client)</text>
<line x1="800" y1="346" x2="800" y2="370" stroke="#5F5E5A" stroke-width="1.5" marker-end="url(#arr)"/>
<rect x="40" y="376" width="1520" height="264" rx="14" fill="#FFFFFF" stroke="#7F77DD" stroke-width="1" stroke-dasharray="6 4"/>
<text x="60" y="412" font-size="18" font-weight="600" fill="#26215C">Access surfaces</text>
<text x="236" y="412" font-size="13" fill="#534AB7">same ADR-0073 envelope · RFC 9457 errors · exit codes per verdict</text>
<rect x="60" y="430" width="358" height="190" rx="10" fill="#EEEDFE" stroke="#7F77DD" stroke-width="1"/>
<text x="72" y="458" font-size="16" font-weight="600" fill="#26215C">Evolith CLI</text>
<text x="72" y="482" font-size="13" fill="#534AB7">governance commands against a satellite</text>
<text x="72" y="500" font-size="13" fill="#534AB7">repository</text>
<rect x="72" y="506" width="66" height="22" rx="11" fill="#FFFFFF" stroke="#AFA9EC" stroke-width="1"/>
<text x="105" y="521" font-size="12" text-anchor="middle" fill="#26215C">Node 20</text>
<rect x="144" y="506" width="86" height="22" rx="11" fill="#FFFFFF" stroke="#AFA9EC" stroke-width="1"/>
<text x="187" y="521" font-size="12" text-anchor="middle" fill="#26215C">TypeScript</text>
<rect x="236" y="506" width="113" height="22" rx="11" fill="#FFFFFF" stroke="#AFA9EC" stroke-width="1"/>
<text x="292.5" y="521" font-size="12" text-anchor="middle" fill="#26215C">nest-commander</text>
<rect x="72" y="534" width="113" height="22" rx="11" fill="#FFFFFF" stroke="#AFA9EC" stroke-width="1"/>
<text x="128.5" y="549" font-size="12" text-anchor="middle" fill="#26215C">@clack/prompts</text>
<rect x="191" y="534" width="39" height="22" rx="11" fill="#FFFFFF" stroke="#AFA9EC" stroke-width="1"/>
<text x="210.5" y="549" font-size="12" text-anchor="middle" fill="#26215C">ajv</text>
<rect x="236" y="534" width="45" height="22" rx="11" fill="#FFFFFF" stroke="#AFA9EC" stroke-width="1"/>
<text x="258.5" y="549" font-size="12" text-anchor="middle" fill="#26215C">yaml</text>
<rect x="287" y="534" width="72" height="22" rx="11" fill="#FFFFFF" stroke="#AFA9EC" stroke-width="1"/>
<text x="323" y="549" font-size="12" text-anchor="middle" fill="#26215C">opa-wasm</text>
<text x="72" y="578" font-size="12" font-family="'SF Mono', Menlo, Consolas, 'Liberation Mono', monospace" fill="#7F77DD">stdin/stdout · --format json</text>
<rect x="434" y="430" width="358" height="190" rx="10" fill="#EEEDFE" stroke="#7F77DD" stroke-width="1"/>
<text x="446" y="458" font-size="16" font-weight="600" fill="#26215C">Core API</text>
<text x="446" y="482" font-size="13" fill="#534AB7">REST exposure of the domain</text>
<rect x="446" y="488" width="126" height="22" rx="11" fill="#FFFFFF" stroke="#AFA9EC" stroke-width="1"/>
<text x="509" y="503" font-size="12" text-anchor="middle" fill="#26215C">NestJS + Express</text>
<rect x="578" y="488" width="119" height="22" rx="11" fill="#FFFFFF" stroke="#AFA9EC" stroke-width="1"/>
<text x="637.5" y="503" font-size="12" text-anchor="middle" fill="#26215C">OpenAPI/Swagger</text>
<rect x="446" y="516" width="160" height="22" rx="11" fill="#FFFFFF" stroke="#AFA9EC" stroke-width="1"/>
<text x="526" y="531" font-size="12" text-anchor="middle" fill="#26215C">class-validator · zod</text>
<rect x="612" y="516" width="139" height="22" rx="11" fill="#FFFFFF" stroke="#AFA9EC" stroke-width="1"/>
<text x="681.5" y="531" font-size="12" text-anchor="middle" fill="#26215C">Helmet · Throttler</text>
<rect x="446" y="544" width="72" height="22" rx="11" fill="#FFFFFF" stroke="#AFA9EC" stroke-width="1"/>
<text x="482" y="559" font-size="12" text-anchor="middle" fill="#26215C">Terminus</text>
<rect x="524" y="544" width="99" height="22" rx="11" fill="#FFFFFF" stroke="#AFA9EC" stroke-width="1"/>
<text x="573.5" y="559" font-size="12" text-anchor="middle" fill="#26215C">Keyv + Redis</text>
<text x="446" y="588" font-size="12" font-family="'SF Mono', Menlo, Consolas, 'Liberation Mono', monospace" fill="#7F77DD">REST /api/v1 · API-key guard · /health</text>
<text x="446" y="604" font-size="12" font-family="'SF Mono', Menlo, Consolas, 'Liberation Mono', monospace" fill="#7F77DD">/metrics</text>
<rect x="808" y="430" width="358" height="190" rx="10" fill="#EEEDFE" stroke="#7F77DD" stroke-width="1"/>
<text x="820" y="458" font-size="16" font-weight="600" fill="#26215C">MCP Services</text>
<text x="820" y="482" font-size="13" fill="#534AB7">governed tools for AI agents</text>
<rect x="820" y="488" width="59" height="22" rx="11" fill="#FFFFFF" stroke="#AFA9EC" stroke-width="1"/>
<text x="849.5" y="503" font-size="12" text-anchor="middle" fill="#26215C">NestJS</text>
<rect x="885" y="488" width="187" height="22" rx="11" fill="#FFFFFF" stroke="#AFA9EC" stroke-width="1"/>
<text x="978.5" y="503" font-size="12" text-anchor="middle" fill="#26215C">@modelcontextprotocol/sdk</text>
<rect x="1078" y="488" width="72" height="22" rx="11" fill="#FFFFFF" stroke="#AFA9EC" stroke-width="1"/>
<text x="1114" y="503" font-size="12" text-anchor="middle" fill="#26215C">opa-wasm</text>
<rect x="820" y="516" width="45" height="22" rx="11" fill="#FFFFFF" stroke="#AFA9EC" stroke-width="1"/>
<text x="842.5" y="531" font-size="12" text-anchor="middle" fill="#26215C">ABAC</text>
<text x="820" y="560" font-size="12" font-family="'SF Mono', Menlo, Consolas, 'Liberation Mono', monospace" fill="#7F77DD">JSON-RPC 2.0 stdio · Streamable HTTP ·</text>
<text x="820" y="576" font-size="12" font-family="'SF Mono', Menlo, Consolas, 'Liberation Mono', monospace" fill="#7F77DD">API-key fail-closed</text>
<rect x="1182" y="430" width="358" height="190" rx="10" fill="#EEEDFE" stroke="#7F77DD" stroke-width="1"/>
<text x="1194" y="458" font-size="16" font-weight="600" fill="#26215C">Agent Runtime API</text>
<text x="1194" y="482" font-size="13" fill="#534AB7">governed agent orchestration</text>
<rect x="1194" y="488" width="59" height="22" rx="11" fill="#FFFFFF" stroke="#AFA9EC" stroke-width="1"/>
<text x="1223.5" y="503" font-size="12" text-anchor="middle" fill="#26215C">NestJS</text>
<rect x="1259" y="488" width="45" height="22" rx="11" fill="#FFFFFF" stroke="#AFA9EC" stroke-width="1"/>
<text x="1281.5" y="503" font-size="12" text-anchor="middle" fill="#26215C">@Sse</text>
<rect x="1310" y="488" width="106" height="22" rx="11" fill="#FFFFFF" stroke="#AFA9EC" stroke-width="1"/>
<text x="1363" y="503" font-size="12" text-anchor="middle" fill="#26215C">OTLP exporter</text>
<text x="1194" y="532" font-size="12" font-family="'SF Mono', Menlo, Consolas, 'Liberation Mono', monospace" fill="#7F77DD">POST /v1/agent handle · converse · hermes ·</text>
<text x="1194" y="548" font-size="12" font-family="'SF Mono', Menlo, Consolas, 'Liberation Mono', monospace" fill="#7F77DD">stream (SSE) · API-key/JWT</text>
<line x1="800" y1="646" x2="800" y2="670" stroke="#5F5E5A" stroke-width="1.5" marker-end="url(#arr)"/>
<rect x="40" y="676" width="1520" height="268" rx="14" fill="#FFFFFF" stroke="#1D9E75" stroke-width="1" stroke-dasharray="6 4"/>
<text x="60" y="712" font-size="18" font-weight="600" fill="#04342C">Evolith Core</text>
<text x="203.6" y="712" font-size="13" fill="#0F6E56">stateless engine: EvaluationContext → EvaluationResult · seals without opinion · the tenant configures · AI proposes, OPA decides</text>
<rect x="60" y="730" width="283" height="194" rx="10" fill="#E1F5EE" stroke="#1D9E75" stroke-width="1"/>
<text x="72" y="758" font-size="16" font-weight="600" fill="#04342C">Domain and application</text>
<text x="72" y="782" font-size="13" fill="#0F6E56">core-domain · core</text>
<rect x="72" y="788" width="86" height="22" rx="11" fill="#FFFFFF" stroke="#5DCAA5" stroke-width="1"/>
<text x="115" y="803" font-size="12" text-anchor="middle" fill="#04342C">TypeScript</text>
<rect x="164" y="788" width="119" height="22" rx="11" fill="#FFFFFF" stroke="#5DCAA5" stroke-width="1"/>
<text x="223.5" y="803" font-size="12" text-anchor="middle" fill="#04342C">hexagonal + DDD</text>
<rect x="72" y="816" width="133" height="22" rx="11" fill="#FFFFFF" stroke="#5DCAA5" stroke-width="1"/>
<text x="138.5" y="831" font-size="12" text-anchor="middle" fill="#04342C">OverlayFileSystem</text>
<rect x="211" y="816" width="79" height="22" rx="11" fill="#FFFFFF" stroke="#5DCAA5" stroke-width="1"/>
<text x="250.5" y="831" font-size="12" text-anchor="middle" fill="#04342C">use cases</text>
<rect x="359" y="730" width="283" height="194" rx="10" fill="#E1F5EE" stroke="#1D9E75" stroke-width="1"/>
<text x="371" y="758" font-size="16" font-weight="600" fill="#04342C">Contracts and SDK</text>
<text x="371" y="782" font-size="13" fill="#0F6E56">contracts · sdk-client</text>
<rect x="371" y="788" width="153" height="22" rx="11" fill="#FFFFFF" stroke="#5DCAA5" stroke-width="1"/>
<text x="447.5" y="803" font-size="12" text-anchor="middle" fill="#04342C">JSON Schema (sha256)</text>
<rect x="530" y="788" width="59" height="22" rx="11" fill="#FFFFFF" stroke="#5DCAA5" stroke-width="1"/>
<text x="559.5" y="803" font-size="12" text-anchor="middle" fill="#04342C">SemVer</text>
<rect x="371" y="816" width="160" height="22" rx="11" fill="#FFFFFF" stroke="#5DCAA5" stroke-width="1"/>
<text x="451" y="831" font-size="12" text-anchor="middle" fill="#04342C">capabilities manifest</text>
<rect x="371" y="844" width="99" height="22" rx="11" fill="#FFFFFF" stroke="#5DCAA5" stroke-width="1"/>
<text x="420.5" y="859" font-size="12" text-anchor="middle" fill="#04342C">typed client</text>
<text x="371" y="888" font-size="12" font-family="'SF Mono', Menlo, Consolas, 'Liberation Mono', monospace" fill="#1D9E75">GET /api/v1/capabilities</text>
<rect x="658" y="730" width="283" height="194" rx="10" fill="#E1F5EE" stroke="#1D9E75" stroke-width="1"/>
<text x="670" y="758" font-size="16" font-weight="600" fill="#04342C">Adapters</text>
<text x="670" y="782" font-size="13" fill="#0F6E56">infra-providers · repo-facts</text>
<rect x="670" y="788" width="133" height="22" rx="11" fill="#FFFFFF" stroke="#5DCAA5" stroke-width="1"/>
<text x="736.5" y="803" font-size="12" text-anchor="middle" fill="#04342C">ajv + ajv-formats</text>
<rect x="809" y="788" width="45" height="22" rx="11" fill="#FFFFFF" stroke="#5DCAA5" stroke-width="1"/>
<text x="831.5" y="803" font-size="12" text-anchor="middle" fill="#04342C">yaml</text>
<rect x="670" y="816" width="72" height="22" rx="11" fill="#FFFFFF" stroke="#5DCAA5" stroke-width="1"/>
<text x="706" y="831" font-size="12" text-anchor="middle" fill="#04342C">fs-extra</text>
<rect x="670" y="844" width="247" height="22" rx="11" fill="#FFFFFF" stroke="#5DCAA5" stroke-width="1"/>
<text x="793.5" y="859" font-size="12" text-anchor="middle" fill="#04342C">content-hashed module/symbol graph</text>
<rect x="957" y="730" width="283" height="194" rx="10" fill="#E1F5EE" stroke="#1D9E75" stroke-width="1"/>
<text x="969" y="758" font-size="16" font-weight="600" fill="#04342C">Agent runtime</text>
<text x="969" y="782" font-size="13" fill="#0F6E56">agentic layer, ports and adapters</text>
<text x="969" y="800" font-size="13" fill="#0F6E56">(ADR-0102)</text>
<rect x="969" y="806" width="39" height="22" rx="11" fill="#FFFFFF" stroke="#5DCAA5" stroke-width="1"/>
<text x="988.5" y="821" font-size="12" text-anchor="middle" fill="#04342C">OPA</text>
<rect x="1014" y="806" width="45" height="22" rx="11" fill="#FFFFFF" stroke="#5DCAA5" stroke-width="1"/>
<text x="1036.5" y="821" font-size="12" text-anchor="middle" fill="#04342C">HITL</text>
<rect x="1065" y="806" width="59" height="22" rx="11" fill="#FFFFFF" stroke="#5DCAA5" stroke-width="1"/>
<text x="1094.5" y="821" font-size="12" text-anchor="middle" fill="#04342C">memory</text>
<rect x="1130" y="806" width="59" height="22" rx="11" fill="#FFFFFF" stroke="#5DCAA5" stroke-width="1"/>
<text x="1159.5" y="821" font-size="12" text-anchor="middle" fill="#04342C">skills</text>
<rect x="969" y="834" width="59" height="22" rx="11" fill="#FFFFFF" stroke="#5DCAA5" stroke-width="1"/>
<text x="998.5" y="849" font-size="12" text-anchor="middle" fill="#04342C">Hermes</text>
<rect x="969" y="862" width="274" height="22" rx="11" fill="#FFFFFF" stroke="#5DCAA5" stroke-width="1"/>
<text x="1106" y="877" font-size="12" text-anchor="middle" fill="#04342C">LLM egress: Claude · Gemini per tenant</text>
<rect x="1256" y="730" width="283" height="194" rx="10" fill="#E1F5EE" stroke="#1D9E75" stroke-width="1"/>
<text x="1268" y="758" font-size="16" font-weight="600" fill="#04342C">Deterministic verification</text>
<text x="1268" y="782" font-size="13" fill="#0F6E56">same rule in two engines, R-25</text>
<text x="1268" y="800" font-size="13" fill="#0F6E56">parity</text>
<rect x="1268" y="806" width="139" height="22" rx="11" fill="#FFFFFF" stroke="#5DCAA5" stroke-width="1"/>
<text x="1337.5" y="821" font-size="12" text-anchor="middle" fill="#04342C">native TS rulesets</text>
<rect x="1268" y="834" width="139" height="22" rx="11" fill="#FFFFFF" stroke="#5DCAA5" stroke-width="1"/>
<text x="1337.5" y="849" font-size="12" text-anchor="middle" fill="#04342C">Rego → policy.wasm</text>
<rect x="1268" y="862" width="200" height="22" rx="11" fill="#FFFFFF" stroke="#5DCAA5" stroke-width="1"/>
<text x="1368" y="877" font-size="12" text-anchor="middle" fill="#04342C">@open-policy-agent/opa-wasm</text>
<rect x="1268" y="890" width="79" height="22" rx="11" fill="#FFFFFF" stroke="#5DCAA5" stroke-width="1"/>
<text x="1307.5" y="905" font-size="12" text-anchor="middle" fill="#04342C">opa build</text>
<line x1="800" y1="974" x2="800" y2="950" stroke="#5F5E5A" stroke-width="1.5" marker-end="url(#arr)"/>
<rect x="40" y="980" width="1520" height="166" rx="14" fill="#FFFFFF" stroke="#D85A30" stroke-width="1" stroke-dasharray="6 4"/>
<text x="60" y="1016" font-size="18" font-weight="600" fill="#4A1B0C">Governed knowledge and SDLC</text>
<text x="365.59999999999997" y="1016" font-size="13" fill="#993C1D">what the Core evaluates; prose describes, it never relaxes a gate</text>
<rect x="60" y="1034" width="482" height="92" rx="10" fill="#FAECE7" stroke="#D85A30" stroke-width="1"/>
<text x="72" y="1062" font-size="16" font-weight="600" fill="#4A1B0C">Manifests and schemas</text>
<text x="72" y="1086" font-size="13" fill="#993C1D">technical contract of the satellite</text>
<rect x="72" y="1092" width="99" height="22" rx="11" fill="#FFFFFF" stroke="#F0997B" stroke-width="1"/>
<text x="121.5" y="1107" font-size="12" text-anchor="middle" fill="#4A1B0C">evolith.yaml</text>
<rect x="177" y="1092" width="166" height="22" rx="11" fill="#FFFFFF" stroke="#F0997B" stroke-width="1"/>
<text x="260" y="1107" font-size="12" text-anchor="middle" fill="#4A1B0C">topology.manifest.json</text>
<rect x="349" y="1092" width="106" height="22" rx="11" fill="#FFFFFF" stroke="#F0997B" stroke-width="1"/>
<text x="402" y="1107" font-size="12" text-anchor="middle" fill="#4A1B0C">*.schema.json</text>
<rect x="558" y="1034" width="482" height="92" rx="10" fill="#FAECE7" stroke="#D85A30" stroke-width="1"/>
<text x="570" y="1062" font-size="16" font-weight="600" fill="#4A1B0C">Decisions and standards</text>
<text x="570" y="1086" font-size="13" fill="#993C1D">authoritative source</text>
<rect x="570" y="1092" width="166" height="22" rx="11" fill="#FFFFFF" stroke="#F0997B" stroke-width="1"/>
<text x="653" y="1107" font-size="12" text-anchor="middle" fill="#4A1B0C">ADRs (Markdown, EN/ES)</text>
<rect x="742" y="1092" width="99" height="22" rx="11" fill="#FFFFFF" stroke="#F0997B" stroke-width="1"/>
<text x="791.5" y="1107" font-size="12" text-anchor="middle" fill="#4A1B0C">8 topologies</text>
<rect x="847" y="1092" width="180" height="22" rx="11" fill="#FFFFFF" stroke="#F0997B" stroke-width="1"/>
<text x="937" y="1107" font-size="12" text-anchor="middle" fill="#4A1B0C">CI guards .harness/*.mjs</text>
<rect x="1056" y="1034" width="482" height="92" rx="10" fill="#FAECE7" stroke="#D85A30" stroke-width="1"/>
<text x="1068" y="1062" font-size="16" font-weight="600" fill="#4A1B0C">SDLC cycle</text>
<text x="1068" y="1086" font-size="13" fill="#993C1D">f1 discovery → f5 delivery</text>
<rect x="1068" y="1092" width="133" height="22" rx="11" fill="#FFFFFF" stroke="#F0997B" stroke-width="1"/>
<text x="1134.5" y="1107" font-size="12" text-anchor="middle" fill="#4A1B0C">gate-f1 … gate-f5</text>
<rect x="1207" y="1092" width="126" height="22" rx="11" fill="#FFFFFF" stroke="#F0997B" stroke-width="1"/>
<text x="1270" y="1107" font-size="12" text-anchor="middle" fill="#4A1B0C">explicit waivers</text>
<rect x="1339" y="1092" width="139" height="22" rx="11" fill="#FFFFFF" stroke="#F0997B" stroke-width="1"/>
<text x="1408.5" y="1107" font-size="12" text-anchor="middle" fill="#4A1B0C">evidence per phase</text>
<rect x="40" y="1170" width="1520" height="204" rx="14" fill="#FFFFFF" stroke="#EF9F27" stroke-width="1" stroke-dasharray="6 4"/>
<text x="60" y="1206" font-size="18" font-weight="600" fill="#412402">Platform and operations</text>
<text x="322.4" y="1206" font-size="13" fill="#854F0B">builds, deploys and observes everything above</text>
<rect x="60" y="1224" width="283" height="130" rx="10" fill="#FAEEDA" stroke="#EF9F27" stroke-width="1"/>
<text x="72" y="1252" font-size="16" font-weight="600" fill="#412402">Build and CI</text>
<rect x="72" y="1264" width="113" height="22" rx="11" fill="#FFFFFF" stroke="#FAC775" stroke-width="1"/>
<text x="128.5" y="1279" font-size="12" text-anchor="middle" fill="#412402">npm workspaces</text>
<rect x="191" y="1264" width="59" height="22" rx="11" fill="#FFFFFF" stroke="#FAC775" stroke-width="1"/>
<text x="220.5" y="1279" font-size="12" text-anchor="middle" fill="#412402">tsc -b</text>
<rect x="256" y="1264" width="66" height="22" rx="11" fill="#FFFFFF" stroke="#FAC775" stroke-width="1"/>
<text x="289" y="1279" font-size="12" text-anchor="middle" fill="#412402">Jest 30</text>
<rect x="72" y="1292" width="133" height="22" rx="11" fill="#FFFFFF" stroke="#FAC775" stroke-width="1"/>
<text x="138.5" y="1307" font-size="12" text-anchor="middle" fill="#412402">ESLint boundaries</text>
<rect x="72" y="1320" width="139" height="22" rx="11" fill="#FFFFFF" stroke="#FAC775" stroke-width="1"/>
<text x="141.5" y="1335" font-size="12" text-anchor="middle" fill="#412402">husky + commitlint</text>
<rect x="217" y="1320" width="86" height="22" rx="11" fill="#FFFFFF" stroke="#FAC775" stroke-width="1"/>
<text x="260" y="1335" font-size="12" text-anchor="middle" fill="#412402">Dependabot</text>
<rect x="359" y="1224" width="283" height="130" rx="10" fill="#FAEEDA" stroke="#EF9F27" stroke-width="1"/>
<text x="371" y="1252" font-size="16" font-weight="600" fill="#412402">Containers and deployment</text>
<rect x="371" y="1264" width="139" height="22" rx="11" fill="#FFFFFF" stroke="#FAC775" stroke-width="1"/>
<text x="440.5" y="1279" font-size="12" text-anchor="middle" fill="#412402">Docker multi-stage</text>
<rect x="516" y="1264" width="113" height="22" rx="11" fill="#FFFFFF" stroke="#FAC775" stroke-width="1"/>
<text x="572.5" y="1279" font-size="12" text-anchor="middle" fill="#412402">docker-compose</text>
<rect x="371" y="1292" width="45" height="22" rx="11" fill="#FFFFFF" stroke="#FAC775" stroke-width="1"/>
<text x="393.5" y="1307" font-size="12" text-anchor="middle" fill="#412402">Helm</text>
<rect x="422" y="1292" width="133" height="22" rx="11" fill="#FFFFFF" stroke="#FAC775" stroke-width="1"/>
<text x="488.5" y="1307" font-size="12" text-anchor="middle" fill="#412402">Kubernetes · kind</text>
<rect x="371" y="1320" width="173" height="22" rx="11" fill="#FFFFFF" stroke="#FAC775" stroke-width="1"/>
<text x="457.5" y="1335" font-size="12" text-anchor="middle" fill="#412402">Coolify + Traefik (TLS)</text>
<rect x="550" y="1320" width="45" height="22" rx="11" fill="#FFFFFF" stroke="#FAC775" stroke-width="1"/>
<text x="572.5" y="1335" font-size="12" text-anchor="middle" fill="#412402">GHCR</text>
<rect x="658" y="1224" width="283" height="130" rx="10" fill="#FAEEDA" stroke="#EF9F27" stroke-width="1"/>
<text x="670" y="1252" font-size="16" font-weight="600" fill="#412402">Data and cache</text>
<rect x="670" y="1264" width="106" height="22" rx="11" fill="#FFFFFF" stroke="#FAC775" stroke-width="1"/>
<text x="723" y="1279" font-size="12" text-anchor="middle" fill="#412402">PostgreSQL 16</text>
<rect x="782" y="1264" width="66" height="22" rx="11" fill="#FFFFFF" stroke="#FAC775" stroke-width="1"/>
<text x="815" y="1279" font-size="12" text-anchor="middle" fill="#412402">Redis 7</text>
<rect x="957" y="1224" width="283" height="130" rx="10" fill="#FAEEDA" stroke="#EF9F27" stroke-width="1"/>
<text x="969" y="1252" font-size="16" font-weight="600" fill="#412402">Observability</text>
<rect x="969" y="1264" width="106" height="22" rx="11" fill="#FFFFFF" stroke="#FAC775" stroke-width="1"/>
<text x="1022" y="1279" font-size="12" text-anchor="middle" fill="#412402">OpenTelemetry</text>
<rect x="1081" y="1264" width="79" height="22" rx="11" fill="#FFFFFF" stroke="#FAC775" stroke-width="1"/>
<text x="1120.5" y="1279" font-size="12" text-anchor="middle" fill="#412402">OTLP/HTTP</text>
<rect x="969" y="1292" width="86" height="22" rx="11" fill="#FFFFFF" stroke="#FAC775" stroke-width="1"/>
<text x="1012" y="1307" font-size="12" text-anchor="middle" fill="#412402">Prometheus</text>
<rect x="1061" y="1292" width="66" height="22" rx="11" fill="#FFFFFF" stroke="#FAC775" stroke-width="1"/>
<text x="1094" y="1307" font-size="12" text-anchor="middle" fill="#412402">Grafana</text>
<rect x="1133" y="1292" width="45" height="22" rx="11" fill="#FFFFFF" stroke="#FAC775" stroke-width="1"/>
<text x="1155.5" y="1307" font-size="12" text-anchor="middle" fill="#412402">pino</text>
<rect x="1256" y="1224" width="283" height="130" rx="10" fill="#FAEEDA" stroke="#EF9F27" stroke-width="1"/>
<text x="1268" y="1252" font-size="16" font-weight="600" fill="#412402">Distribution</text>
<rect x="1268" y="1264" width="180" height="22" rx="11" fill="#FFFFFF" stroke="#FAC775" stroke-width="1"/>
<text x="1358" y="1279" font-size="12" text-anchor="middle" fill="#412402">npm @beyondnet/evolith-*</text>
<rect x="1268" y="1292" width="133" height="22" rx="11" fill="#FFFFFF" stroke="#FAC775" stroke-width="1"/>
<text x="1334.5" y="1307" font-size="12" text-anchor="middle" fill="#412402">provenance (OIDC)</text>
<rect x="1268" y="1320" width="139" height="22" rx="11" fill="#FFFFFF" stroke="#FAC775" stroke-width="1"/>
<text x="1337.5" y="1335" font-size="12" text-anchor="middle" fill="#412402">GitHub Marketplace</text>
</svg>
